<!DOCTYPE svg PUBLIC "-//W3C//DTD SVG 1.1//EN" "http://www.w3.org/Graphics/SVG/1.1/DTD/svg11.dtd">
<svg width="100%" height="100%" viewBox="0 0 800 800" version="1.1" xmlns="http://www.w3.org/2000/svg" xmlns:xlink="http://www.w3.org/1999/xlink" xml:space="preserve" xmlns:serif="http://www.serif.com/" style="fill-rule:evenodd;clip-rule:evenodd;">
    <g transform="matrix(0.1,0,0,-0.1,0,408.8)">
        <g id="SVGRepo_iconCarrier">
            <g>
                <g>
                    <path d="M612.96,3636.4L242.96,3266.4L1000.88,2508.48L1196.4,2704L772.56,3127.84L2752.88,3127.84L2752.88,3404.96L772.72,3404.96L1188.4,3820.64L1093.84,3915.2C1041.68,3965.6 996,4008 992.8,4008C987.84,4008 816.72,3841.76 612.96,3636.4Z" style="fill:white;fill-rule:nonzero;stroke:black;stroke-width:50px;"/>
                    <path d="M6901.28,3910.24L6803.52,3812.48L7211.04,3404.96L5246.88,3404.96L5246.88,3127.84L7227.28,3127.84L6803.44,2704L6998.96,2508.48L7756.88,3266.4L7386.88,3636.4C7183.12,3841.76 7012,4008 7007.12,4008C7002.32,4008 6955.04,3964 6901.28,3910.24Z" style="fill:white;fill-rule:nonzero;stroke:black;stroke-width:50px;"/>
                    <g transform="matrix(10,0,0,-10,0,4088)">
                        <path d="M580.112,756.304L356.381,758.101L358.448,717.84L310.04,669.432L261.792,621.192L253.808,583.216L245.984,545.4L220.72,501.72L195.44,457.864L203.104,444.008L210.928,430.152L243.688,430.152L285.088,502.032C307.904,541.64 327.464,575.216 328.608,576.68C330.24,578.8 330.56,539.024 330.728,389.4L330.728,199.52L344.416,191.696L358.104,184.032L371.632,191.856L385.32,199.68L385.808,314.912L386.136,430.152L413.856,430.152L413.856,116.232L441.568,100.584L455.424,108.568L469.28,116.392L469.28,430.152L496.832,430.152L497.808,390.376L524.864,374.728L539.696,382.552L554.368,390.216L553.392,410.104L552.4,430.152L580.112,430.152L580.112,402.768L608.48,386.464L615.976,390.704C620.048,392.984 626.08,396.568 629.504,398.688L635.536,402.44L635.536,573.104L580.112,720.768L580.112,756.304Z" style="fill:white;"/>
                    </g>
                    <path d="M4138.56,3243.52L3869.6,3087.12L3864.72,2748.08C3863.12,2562.24 3858.16,2410.72 3853.28,2410.72C3850,2410.72 3789.68,2443.28 3721.28,2484.08C3654.48,2524.8 3589.28,2557.44 3579.44,2557.44C3568,2557.44 3442.56,2488.96 3299.12,2405.84L3038.32,2254.24L3030.16,797.04C3023.68,-257.52 3017.12,-652 3004.08,-635.68C2994.32,-622.64 2899.76,-461.28 2792.16,-273.84L2598.24,63.52L2275.52,60.24L1951.2,55.36L1798,-212C1711.6,-360.32 1644.8,-492.32 1649.68,-505.36C1652.96,-520 1776.8,-741.68 1926.8,-999.2L2197.36,-1466.96L2278.88,-1861.36L2358.72,-2255.76L3307.36,-3204.4L3307.36,-3832L5801.12,-3832L5801.12,-3475.04L3563.81,-3493.01L3584.48,-3090.4L3100.4,-2606.32L2617.92,-2123.92L2538.08,-1744.16L2459.84,-1366L2207.2,-929.2L1954.4,-490.64L2031.04,-352.08L2109.28,-213.52L2436.88,-213.52L2850.88,-932.32C3079.04,-1328.4 3274.64,-1664.16 3286.08,-1678.8C3302.4,-1700 3305.6,-1302.24 3307.28,194L3307.28,2092.8L3444.16,2171.04L3581.04,2247.68L3716.32,2169.44L3853.2,2091.2L3858.08,938.88L3861.36,-213.52L4138.56,-213.52L4138.56,2925.68L4415.68,3082.16L4554.24,3002.32L4692.8,2924.08L4692.8,-213.52L4968.32,-213.52L4978.08,184.24L5248.64,340.72L5396.96,262.48L5543.68,185.84L5533.92,-13.04L5524,-213.52L5801.12,-213.52L5801.12,60.32L6084.8,223.36L6159.76,180.96C6200.48,158.16 6260.8,122.32 6295.04,101.12L6355.36,63.6L6355.36,-1643.04L5801.12,-3119.68L5801.12,-3832L6078.24,-3832L6078.24,-3175.12L6355.36,-2435.12L6632.48,-1696.8L6632.48,223.2L6360.24,381.28L6086.4,539.36L6029.36,508.4C5998.4,490.48 5934.8,454.64 5887.52,428.56L5802.72,381.28L5532.16,516.56C5383.84,589.92 5256.72,650.24 5248.56,650.24C5240.4,650.24 5176.88,617.6 5110,576.88C5041.52,536.16 4981.28,503.52 4978,503.52C4973.12,503.52 4968.24,1083.76 4966.56,1794.4L4961.68,3085.28L4741.68,3212.4C4621.04,3282.48 4495.52,3354.16 4464.56,3370.48L4407.52,3399.84L4138.56,3243.52Z" style="fill-rule:nonzero;stroke:black;stroke-width:1px;"/>
                </g>
            </g>
        </g>
    </g>
</svg>
